<mxfile host="app.diagrams.net" modified="2022-01-31T16:40:00.764Z" agent="5.0 (Windows)" etag="0i6R734RHDOrlpsi-NbM" version="16.5.2" type="github">
  <diagram id="_v7i0fBCqEnllxP4NEb3" name="Page-1">
    <mxGraphModel dx="1673" dy="896" grid="1" gridSize="10" guides="1" tooltips="1" connect="1" arrows="1" fold="1" page="1" pageScale="1" pageWidth="827" pageHeight="1169" math="0" shadow="0">
      <root>
        <mxCell id="0" />
        <mxCell id="1" parent="0" />
        <mxCell id="f4szcPcod1wVxCYC3vgB-35" style="edgeStyle=orthogonalEdgeStyle;rounded=0;orthogonalLoop=1;jettySize=auto;html=1;exitX=1;exitY=0.5;exitDx=0;exitDy=0;entryX=0.01;entryY=0.862;entryDx=0;entryDy=0;entryPerimeter=0;" edge="1" parent="1" source="f4szcPcod1wVxCYC3vgB-3" target="f4szcPcod1wVxCYC3vgB-10">
          <mxGeometry relative="1" as="geometry" />
        </mxCell>
        <mxCell id="f4szcPcod1wVxCYC3vgB-37" style="edgeStyle=orthogonalEdgeStyle;rounded=0;orthogonalLoop=1;jettySize=auto;html=1;exitX=1;exitY=0.5;exitDx=0;exitDy=0;entryX=0;entryY=0.821;entryDx=0;entryDy=0;entryPerimeter=0;" edge="1" parent="1" source="f4szcPcod1wVxCYC3vgB-3" target="f4szcPcod1wVxCYC3vgB-8">
          <mxGeometry relative="1" as="geometry">
            <Array as="points">
              <mxPoint x="380" y="80" />
              <mxPoint x="380" y="477" />
            </Array>
          </mxGeometry>
        </mxCell>
        <mxCell id="f4szcPcod1wVxCYC3vgB-45" style="edgeStyle=orthogonalEdgeStyle;rounded=0;orthogonalLoop=1;jettySize=auto;html=1;exitX=0;exitY=0.5;exitDx=0;exitDy=0;entryX=-0.004;entryY=0.578;entryDx=0;entryDy=0;entryPerimeter=0;" edge="1" parent="1" source="f4szcPcod1wVxCYC3vgB-3" target="f4szcPcod1wVxCYC3vgB-41">
          <mxGeometry relative="1" as="geometry" />
        </mxCell>
        <mxCell id="f4szcPcod1wVxCYC3vgB-3" value="&lt;p style=&quot;margin: 0px ; margin-top: 4px ; text-align: center ; text-decoration: underline&quot;&gt;&lt;b&gt;Reports&lt;/b&gt;&lt;/p&gt;&lt;hr&gt;&lt;p style=&quot;margin: 0px ; margin-left: 8px&quot;&gt;ID_report = INT&lt;br&gt;Report_name = VARCHAR(25)&lt;br&gt;Creation_date = DATE&lt;br&gt;&lt;/p&gt;" style="verticalAlign=top;align=left;overflow=fill;fontSize=12;fontFamily=Helvetica;html=1;rounded=0;shadow=0;comic=0;labelBackgroundColor=none;strokeWidth=1" vertex="1" parent="1">
          <mxGeometry x="160" y="40" width="190" height="80" as="geometry" />
        </mxCell>
        <mxCell id="f4szcPcod1wVxCYC3vgB-40" style="edgeStyle=orthogonalEdgeStyle;rounded=0;orthogonalLoop=1;jettySize=auto;html=1;exitX=0;exitY=0.5;exitDx=0;exitDy=0;entryX=-0.004;entryY=0.852;entryDx=0;entryDy=0;entryPerimeter=0;" edge="1" parent="1" source="f4szcPcod1wVxCYC3vgB-5" target="f4szcPcod1wVxCYC3vgB-12">
          <mxGeometry relative="1" as="geometry">
            <Array as="points">
              <mxPoint x="110" y="600" />
              <mxPoint x="90" y="600" />
              <mxPoint x="90" y="465" />
            </Array>
          </mxGeometry>
        </mxCell>
        <mxCell id="f4szcPcod1wVxCYC3vgB-5" value="&lt;p style=&quot;margin: 0px ; margin-top: 4px ; text-align: center ; text-decoration: underline&quot;&gt;&lt;b&gt;Roles&lt;/b&gt;&lt;/p&gt;&lt;hr&gt;&lt;p style=&quot;margin: 0px ; margin-left: 8px&quot;&gt;ID_role = INT&lt;br&gt;Role_name = VARCHAR(10)&lt;/p&gt;" style="verticalAlign=top;align=left;overflow=fill;fontSize=12;fontFamily=Helvetica;html=1;rounded=0;shadow=0;comic=0;labelBackgroundColor=none;strokeWidth=1" vertex="1" parent="1">
          <mxGeometry x="110" y="560" width="180" height="70" as="geometry" />
        </mxCell>
        <mxCell id="f4szcPcod1wVxCYC3vgB-8" value="&lt;p style=&quot;margin: 0px ; margin-top: 4px ; text-align: center ; text-decoration: underline&quot;&gt;&lt;b&gt;Vuln&lt;/b&gt;&lt;br&gt;&lt;/p&gt;&lt;hr&gt;&lt;p style=&quot;margin: 0px ; margin-left: 8px&quot;&gt;ID_vuln = INT&lt;br&gt;Vuln_name = VARCHAR(60)&lt;br&gt;Vuln_ref = VARCHAR(30)&lt;/p&gt;&lt;p style=&quot;margin: 0px ; margin-left: 8px&quot;&gt;Vuln_date = DATE&lt;br&gt;&lt;/p&gt;&lt;p style=&quot;margin: 0px ; margin-left: 8px&quot;&gt;Vuln_criticity = INT&lt;br&gt;&lt;/p&gt;&lt;p style=&quot;margin: 0px ; margin-left: 8px&quot;&gt;Vuln_desc = TEXT&lt;br&gt;&lt;/p&gt;&lt;p style=&quot;margin: 0px ; margin-left: 8px&quot;&gt;Vuln_URL = VARCHAR(255)&lt;br&gt;&lt;/p&gt;&lt;p style=&quot;margin: 0px ; margin-left: 8px&quot;&gt;Vuln_attack_vector = VARCHAR(20)&lt;/p&gt;&lt;p style=&quot;margin: 0px ; margin-left: 8px&quot;&gt;Vuln_attack_complexity = VARCHAR(20)&lt;/p&gt;&lt;p style=&quot;margin: 0px ; margin-left: 8px&quot;&gt;Vuln_impact_availability = VARCHAR(20)&lt;/p&gt;&lt;p style=&quot;margin: 0px ; margin-left: 8px&quot;&gt;Vuln_impact_integrity = VARCHAR(20)&lt;/p&gt;&lt;p style=&quot;margin: 0px ; margin-left: 8px&quot;&gt;#reports = INT&lt;/p&gt;&lt;p style=&quot;margin: 0px ; margin-left: 8px&quot;&gt;#ports = INT&lt;/p&gt;&lt;p style=&quot;margin: 0px ; margin-left: 8px&quot;&gt;#hosts = INT&lt;/p&gt;&lt;p style=&quot;margin: 0px ; margin-left: 8px&quot;&gt;&lt;br&gt;&lt;/p&gt;" style="verticalAlign=top;align=left;overflow=fill;fontSize=12;fontFamily=Helvetica;html=1;rounded=0;shadow=0;comic=0;labelBackgroundColor=none;strokeWidth=1" vertex="1" parent="1">
          <mxGeometry x="560" y="280" width="240" height="240" as="geometry" />
        </mxCell>
        <mxCell id="f4szcPcod1wVxCYC3vgB-36" style="edgeStyle=orthogonalEdgeStyle;rounded=0;orthogonalLoop=1;jettySize=auto;html=1;exitX=0;exitY=0.25;exitDx=0;exitDy=0;entryX=0;entryY=0.95;entryDx=0;entryDy=0;entryPerimeter=0;" edge="1" parent="1" source="f4szcPcod1wVxCYC3vgB-10" target="f4szcPcod1wVxCYC3vgB-8">
          <mxGeometry relative="1" as="geometry">
            <mxPoint x="550" y="510" as="targetPoint" />
          </mxGeometry>
        </mxCell>
        <mxCell id="f4szcPcod1wVxCYC3vgB-38" style="edgeStyle=orthogonalEdgeStyle;rounded=0;orthogonalLoop=1;jettySize=auto;html=1;exitX=1;exitY=0.25;exitDx=0;exitDy=0;entryX=0;entryY=0.846;entryDx=0;entryDy=0;entryPerimeter=0;" edge="1" parent="1" source="f4szcPcod1wVxCYC3vgB-10" target="f4szcPcod1wVxCYC3vgB-13">
          <mxGeometry relative="1" as="geometry" />
        </mxCell>
        <mxCell id="f4szcPcod1wVxCYC3vgB-10" value="&lt;p style=&quot;margin: 0px ; margin-top: 4px ; text-align: center ; text-decoration: underline&quot;&gt;&lt;b&gt;Hosts&lt;/b&gt;&lt;/p&gt;&lt;hr&gt;&lt;p style=&quot;margin: 0px ; margin-left: 8px&quot;&gt;ID_host = INT&lt;br&gt;Host_name = VARCHAR(50)&lt;br&gt;Host_os = VARCHAR(20)&lt;br&gt;&lt;/p&gt;&lt;p style=&quot;margin: 0px ; margin-left: 8px&quot;&gt;Host_ip = VARCHAR(15)&lt;br&gt;&lt;/p&gt;&lt;p style=&quot;margin: 0px ; margin-left: 8px&quot;&gt;Host_mac_addr = VARCHAR(20)&lt;/p&gt;&lt;p style=&quot;margin: 0px ; margin-left: 8px&quot;&gt;#reports = INT&lt;br&gt;&lt;/p&gt;" style="verticalAlign=top;align=left;overflow=fill;fontSize=12;fontFamily=Helvetica;html=1;rounded=0;shadow=0;comic=0;labelBackgroundColor=none;strokeWidth=1" vertex="1" parent="1">
          <mxGeometry x="480" y="40" width="200" height="130" as="geometry" />
        </mxCell>
        <mxCell id="f4szcPcod1wVxCYC3vgB-46" style="edgeStyle=orthogonalEdgeStyle;rounded=0;orthogonalLoop=1;jettySize=auto;html=1;exitX=0;exitY=0.5;exitDx=0;exitDy=0;entryX=0.002;entryY=0.786;entryDx=0;entryDy=0;entryPerimeter=0;" edge="1" parent="1" source="f4szcPcod1wVxCYC3vgB-12" target="f4szcPcod1wVxCYC3vgB-41">
          <mxGeometry relative="1" as="geometry">
            <Array as="points">
              <mxPoint x="120" y="420" />
              <mxPoint x="100" y="420" />
              <mxPoint x="100" y="275" />
            </Array>
          </mxGeometry>
        </mxCell>
        <mxCell id="f4szcPcod1wVxCYC3vgB-12" value="&lt;p style=&quot;margin: 0px ; margin-top: 4px ; text-align: center ; text-decoration: underline&quot;&gt;&lt;b&gt;Users&lt;/b&gt;&lt;/p&gt;&lt;hr&gt;&lt;p style=&quot;margin: 0px ; margin-left: 8px&quot;&gt;ID_user = INT&lt;br&gt;User_name = VARCHAR(50)&lt;br&gt;Pwd = VARCHAR(255)&lt;/p&gt;&lt;p style=&quot;margin: 0px ; margin-left: 8px&quot;&gt;#roles = INT&lt;br&gt;&lt;/p&gt;" style="verticalAlign=top;align=left;overflow=fill;fontSize=12;fontFamily=Helvetica;html=1;rounded=0;shadow=0;comic=0;labelBackgroundColor=none;strokeWidth=1" vertex="1" parent="1">
          <mxGeometry x="120" y="380" width="180" height="100" as="geometry" />
        </mxCell>
        <mxCell id="f4szcPcod1wVxCYC3vgB-39" style="edgeStyle=orthogonalEdgeStyle;rounded=0;orthogonalLoop=1;jettySize=auto;html=1;exitX=0;exitY=0.25;exitDx=0;exitDy=0;entryX=1.005;entryY=0.894;entryDx=0;entryDy=0;entryPerimeter=0;" edge="1" parent="1" source="f4szcPcod1wVxCYC3vgB-13" target="f4szcPcod1wVxCYC3vgB-8">
          <mxGeometry relative="1" as="geometry" />
        </mxCell>
        <mxCell id="f4szcPcod1wVxCYC3vgB-13" value="&lt;p style=&quot;margin: 0px ; margin-top: 4px ; text-align: center ; text-decoration: underline&quot;&gt;&lt;b&gt;Ports&lt;/b&gt;&lt;/p&gt;&lt;hr&gt;&lt;p style=&quot;margin: 0px ; margin-left: 8px&quot;&gt;ID_port = INT&lt;br&gt;Port_number = INT&lt;br&gt;Protocole = VARCHAR(50)&lt;br&gt;&lt;/p&gt;&lt;p style=&quot;margin: 0px ; margin-left: 8px&quot;&gt;Version = VARCHAR(15)&lt;br&gt;&lt;/p&gt;&lt;p style=&quot;margin: 0px ; margin-left: 8px&quot;&gt;Application = VARCHAR(60)&lt;/p&gt;&lt;p style=&quot;margin: 0px ; margin-left: 8px&quot;&gt;#hosts = INT&lt;/p&gt;" style="verticalAlign=top;align=left;overflow=fill;fontSize=12;fontFamily=Helvetica;html=1;rounded=0;shadow=0;comic=0;labelBackgroundColor=none;strokeWidth=1" vertex="1" parent="1">
          <mxGeometry x="900" y="160" width="170" height="130" as="geometry" />
        </mxCell>
        <mxCell id="f4szcPcod1wVxCYC3vgB-41" value="&lt;p style=&quot;margin: 0px ; margin-top: 4px ; text-align: center ; text-decoration: underline&quot;&gt;&lt;b&gt;Consult&lt;/b&gt;&lt;/p&gt;&lt;hr&gt;&lt;p style=&quot;margin: 0px ; margin-left: 8px&quot;&gt;#reports = INT&lt;br&gt;#users = VARCHAR(25)&lt;br&gt;&lt;/p&gt;" style="verticalAlign=top;align=left;overflow=fill;fontSize=12;fontFamily=Helvetica;html=1;rounded=0;shadow=0;comic=0;labelBackgroundColor=none;strokeWidth=1" vertex="1" parent="1">
          <mxGeometry x="130" y="220" width="190" height="70" as="geometry" />
        </mxCell>
      </root>
    </mxGraphModel>
  </diagram>
</mxfile>
